# xmcd
#
# Track frame offsets:
#	150
#	16722
#	35760
#	51485
#	67060
#	81417
#	97327
#	116435
#	137795
#	153712
#
# Disc length: 2447 seconds
#
# Revision: 1
# Processed by: cddbd v1.5.1PL0 Copyright (c) Steve Scherf et al.
# Submitted via: CDex 1.50Beta5
#
DISCID=92098d0a
DTITLE=AKIHABARA ELECTRIC CIRCUS - SUPER MARIO BROS.3
DYEAR=1988
DGENRE=その他(邦楽)
TTITLE0=MAZE1
TTITLE1=ADVENTURES
TTITLE2=MAZE2
TTITLE3=WATERFRONT
TTITLE4=UNDERGROUND
TTITLE5=BOSS
TTITLE6=ATHLETIC
TTITLE7=LAP
TTITLE8=THANK YOU MARIO
TTITLE9=SUPER MARIO BROS.3
EXTD=
EXTT0=
EXTT1=
EXTT2=
EXTT3=
EXTT4=
EXTT5=
EXTT6=
EXTT7=
EXTT8=
EXTT9=
PLAYORDER=
